<?xml version="1.0" encoding="iso-8859-1"?>
<!-- Generator: Adobe Illustrator 28.0.0, SVG Export Plug-In . SVG Version: 6.00 Build 0)  -->
<svg version="1.1" id="&#xB808;&#xC774;&#xC5B4;_1" xmlns="http://www.w3.org/2000/svg" xmlns:xlink="http://www.w3.org/1999/xlink"
	 x="0px" y="0px" viewBox="0 0 500 500" style="enable-background:new 0 0 500 500;" xml:space="preserve">
<g>
	<polygon style="fill:#C64429;" points="195.682,137.584 198.875,135.752 202.07,137.602 198.88,139.432 	"/>
	<polygon style="fill:#EDBA2E;" points="198.883,137.358 195.7,135.509 195.704,131.817 198.884,133.665 	"/>
	<polygon style="fill:#306BA0;" points="202.094,131.826 202.084,135.506 198.884,137.349 198.895,133.671 	"/>
	<polygon style="fill:#C64429;" points="195.69,131.808 198.883,129.977 202.078,131.827 198.888,133.657 	"/>
	<polygon style="fill:#EDBA2E;" points="198.867,131.787 195.685,129.939 195.689,126.246 198.869,128.094 	"/>
	<polygon style="fill:#306BA0;" points="202.078,126.255 202.068,129.936 198.869,131.778 198.879,128.1 	"/>
	<polygon style="fill:#C64429;" points="195.675,126.238 198.867,124.406 202.063,126.256 198.872,128.086 	"/>
	<polyline style="fill:#EDBA2E;" points="195.704,120.51 198.884,122.358 198.883,126.051 195.7,124.202 195.704,120.51 	"/>
	<polyline style="fill:#306BA0;" points="202.094,120.519 202.084,124.199 198.884,126.042 198.895,122.364 202.094,120.519 	"/>
	<polygon style="fill:#EDBA2E;" points="203.759,129.039 200.576,127.19 200.58,123.498 203.76,125.345 	"/>
	<polygon style="fill:#306BA0;" points="206.97,123.507 206.96,127.187 203.76,129.03 203.77,125.352 	"/>
	<polygon style="fill:#C64429;" points="200.566,123.489 203.759,121.658 206.954,123.508 203.764,125.338 	"/>
	<polygon style="fill:#C64429;" points="195.69,120.502 198.883,118.67 202.078,120.52 198.888,122.35 	"/>
	<polygon style="fill:#EDBA2E;" points="208.682,131.793 205.499,129.944 205.503,126.251 208.683,128.099 	"/>
	<polyline style="fill:#306BA0;" points="211.883,129.941 208.683,131.784 208.694,128.106 211.893,126.261 	"/>
	<polyline style="fill:#C64429;" points="211.877,126.261 208.687,128.091 205.489,126.243 208.682,124.412 211.877,126.261 	"/>
	<polyline style="fill:#EDBA2E;" points="210.435,129.094 213.615,130.941 213.614,134.635 210.431,132.786 	"/>
	<polygon style="fill:#306BA0;" points="216.825,129.103 216.815,132.783 213.615,134.626 213.625,130.948 	"/>
	<polyline style="fill:#C64429;" points="210.421,129.085 213.614,127.254 216.809,129.103 213.619,130.934 210.421,129.085 	"/>
	<polygon style="fill:#EDBA2E;" points="218.473,137.444 215.29,135.595 215.294,131.903 218.474,133.75 	"/>
	<polygon style="fill:#EDBA2E;" points="213.57,140.218 210.388,138.369 210.392,134.677 213.572,136.525 	"/>
	<polygon style="fill:#306BA0;" points="221.684,131.912 221.674,135.592 218.474,137.435 218.485,133.757 	"/>
	<polygon style="fill:#C64429;" points="215.28,131.894 218.473,130.063 221.668,131.913 218.478,133.743 	"/>
	<line style="fill:#EDBA2E;" x1="213.571" y1="140.218" x2="210.389" y2="138.369"/>
	<polygon style="fill:#306BA0;" points="216.783,134.686 216.773,138.366 213.573,140.209 213.583,136.531 	"/>
	<polyline style="fill:#C64429;" points="210.379,134.669 213.571,132.837 216.767,134.687 213.577,136.517 210.379,134.669 	"/>
	<polygon style="fill:#EDBA2E;" points="208.672,143.018 205.489,141.169 205.493,137.477 208.674,139.325 	"/>
	<polyline style="fill:#306BA0;" points="211.873,141.166 208.674,143.009 208.684,139.331 211.883,137.486 	"/>
	<polyline style="fill:#C64429;" points="211.867,137.487 208.677,139.317 205.48,137.469 208.672,135.637 211.867,137.487 	"/>
	<polyline style="fill:#EDBA2E;" points="203.751,145.981 200.568,144.132 200.572,140.44 203.752,142.288 203.751,145.981 	"/>
	<polyline style="fill:#306BA0;" points="203.752,145.972 203.763,142.294 206.962,140.449 206.952,144.129 203.752,145.972 	"/>
	<polygon style="fill:#C64429;" points="200.558,140.432 203.751,138.6 206.946,140.45 203.756,142.28 	"/>
	<polyline style="fill:#EDBA2E;" points="195.7,146.821 195.704,143.129 198.884,144.976 198.883,148.67 	"/>
	<polyline style="fill:#306BA0;" points="198.884,148.661 198.895,144.983 202.094,143.138 202.084,146.818 	"/>
	<polygon style="fill:#C64429;" points="195.69,143.12 198.883,141.289 202.078,143.139 198.888,144.969 	"/>
	<polygon style="fill:#EDBA2E;" points="198.875,143.134 195.692,141.285 195.696,137.592 198.876,139.44 	"/>
	<polygon style="fill:#306BA0;" points="202.086,137.602 202.076,141.282 198.876,143.125 198.887,139.447 	"/>
</g>
</svg>
