<?xml version="1.0" encoding="iso-8859-1"?>
<!-- Generator: Adobe Illustrator 28.0.0, SVG Export Plug-In . SVG Version: 6.00 Build 0)  -->
<svg version="1.1" id="&#xB808;&#xC774;&#xC5B4;_1" xmlns="http://www.w3.org/2000/svg" xmlns:xlink="http://www.w3.org/1999/xlink"
	 x="0px" y="0px" viewBox="0 0 40 40" style="enable-background:new 0 0 40 40;" xml:space="preserve">
<g>
	<polygon style="fill:#C64429;" points="23.914,32.997 22.083,29.805 23.932,26.609 25.762,29.799 	"/>
	<polygon style="fill:#EDBA2E;" points="23.688,29.797 21.839,32.979 18.147,32.975 19.995,29.795 	"/>
	<polygon style="fill:#306BA0;" points="18.156,26.585 21.836,26.595 23.679,29.795 20.001,29.785 	"/>
	<polygon style="fill:#C64429;" points="18.139,32.989 16.307,29.797 18.157,26.601 19.987,29.791 	"/>
	<polygon style="fill:#EDBA2E;" points="18.117,29.813 16.269,32.995 12.576,32.991 14.424,29.811 	"/>
	<polygon style="fill:#306BA0;" points="12.585,26.601 16.266,26.611 18.108,29.811 14.431,29.801 	"/>
	<polygon style="fill:#C64429;" points="12.568,33.005 10.736,29.812 12.586,26.617 14.416,29.807 	"/>
	<polyline style="fill:#EDBA2E;" points="6.84,32.975 8.688,29.795 12.381,29.797 10.532,32.979 6.84,32.975 	"/>
	<polyline style="fill:#306BA0;" points="6.849,26.585 10.529,26.595 12.372,29.795 8.694,29.785 6.849,26.585 	"/>
	<polygon style="fill:#EDBA2E;" points="15.369,24.921 13.52,28.103 9.828,28.099 11.676,24.919 	"/>
	<polygon style="fill:#306BA0;" points="9.837,21.709 13.517,21.719 15.36,24.919 11.682,24.909 	"/>
	<polygon style="fill:#C64429;" points="9.82,28.113 7.988,24.921 9.838,21.725 11.668,24.915 	"/>
	<polygon style="fill:#C64429;" points="6.832,32.989 5,29.797 6.85,26.601 8.68,29.791 	"/>
	<polygon style="fill:#EDBA2E;" points="18.123,19.998 16.274,23.18 12.582,23.176 14.429,19.996 	"/>
	<polyline style="fill:#306BA0;" points="16.271,16.796 18.114,19.996 14.436,19.986 12.591,16.786 	"/>
	<polyline style="fill:#C64429;" points="12.591,16.802 14.421,19.992 12.573,23.19 10.742,19.998 12.591,16.802 	"/>
	<polyline style="fill:#EDBA2E;" points="15.424,18.244 17.271,15.064 20.965,15.066 19.116,18.248 	"/>
	<polygon style="fill:#306BA0;" points="15.433,11.854 19.113,11.864 20.956,15.064 17.278,15.054 	"/>
	<polyline style="fill:#C64429;" points="15.415,18.258 13.584,15.066 15.433,11.87 17.264,15.06 15.415,18.258 	"/>
	<polygon style="fill:#EDBA2E;" points="23.774,10.207 21.925,13.389 18.233,13.385 20.081,10.205 	"/>
	<polygon style="fill:#EDBA2E;" points="26.548,15.109 24.699,18.291 21.007,18.287 22.855,15.107 	"/>
	<polygon style="fill:#306BA0;" points="18.242,6.995 21.922,7.005 23.765,10.205 20.087,10.195 	"/>
	<polygon style="fill:#C64429;" points="18.224,13.399 16.393,10.207 18.243,7.011 20.073,10.201 	"/>
	<line style="fill:#EDBA2E;" x1="26.548" y1="15.108" x2="24.699" y2="18.291"/>
	<polygon style="fill:#306BA0;" points="21.016,11.897 24.696,11.907 26.539,15.106 22.861,15.096 	"/>
	<polyline style="fill:#C64429;" points="20.999,18.3 19.167,15.108 21.017,11.912 22.847,15.103 20.999,18.3 	"/>
	<polygon style="fill:#EDBA2E;" points="29.348,20.008 27.499,23.19 23.807,23.186 25.655,20.006 	"/>
	<polyline style="fill:#306BA0;" points="27.496,16.806 29.339,20.006 25.661,19.996 23.816,16.796 	"/>
	<polyline style="fill:#C64429;" points="23.817,16.812 25.647,20.002 23.799,23.2 21.967,20.008 23.817,16.812 	"/>
	<polyline style="fill:#EDBA2E;" points="32.311,24.929 30.462,28.111 26.77,28.107 28.618,24.927 32.311,24.929 	"/>
	<polyline style="fill:#306BA0;" points="32.302,24.927 28.624,24.917 26.779,21.717 30.459,21.727 32.302,24.927 	"/>
	<polygon style="fill:#C64429;" points="26.762,28.121 24.93,24.929 26.78,21.733 28.61,24.923 	"/>
	<polyline style="fill:#EDBA2E;" points="33.151,32.979 29.459,32.975 31.306,29.795 35,29.797 	"/>
	<polyline style="fill:#306BA0;" points="34.991,29.795 31.313,29.785 29.468,26.585 33.148,26.595 	"/>
	<polygon style="fill:#C64429;" points="29.45,32.989 27.619,29.797 29.469,26.601 31.299,29.791 	"/>
	<polygon style="fill:#EDBA2E;" points="29.464,29.805 27.615,32.987 23.922,32.983 25.77,29.803 	"/>
	<polygon style="fill:#306BA0;" points="23.932,26.593 27.612,26.603 29.455,29.803 25.777,29.793 	"/>
</g>
</svg>
